<svg id="Layer_1" data-name="Layer 1" xmlns="http://www.w3.org/2000/svg" viewBox="0 0 464.07 128.59"><defs><style>.cls-1{fill:#fff;}</style></defs><title>TT-LOGO</title><path class="cls-1" d="M116.91,440.18c0-1.1-.07-2.75-.16-5s-.15-3.89-.15-5a2.69,2.69,0,0,0-.51-1.59,1.38,1.38,0,0,0-1.13-.73c-1.08,0-2.79.11-5.08.27s-4.09.26-5.3.26l-28.7-.53c-1.36,0-2,2.08-2,6.21v13.88a3,3,0,0,0,2,3L88.7,448.4c.06.4.13.71.15,1l-2.49,23.1,0,.22h0l-.12,1.1c-.42,3.73-.7,6.17-.91,7.31-.68,3.79-1,5.63-1,5.53,0,2.39.59,3.58,1.77,3.58l1.13,0h.06l13.66.21a.9.9,0,0,0,.74-.34,1.84,1.84,0,0,0,.54-.78c.09-2.24.1-4,0-5.38q.08-1,.19-6.58c.11-2.63.16-4.81.16-6.49q0-19.56.82-24.57l1.75.19h0l1.6.17h0c.31,0,.6.07.87.09h0l2.93.33,3.08.47h0l.42.05h.1l.19,0,.19.05a1.09,1.09,0,0,1,.17,0,3.39,3.39,0,0,0,.62.11c.16,0,.42-.18.76-.52a1.54,1.54,0,0,0,.5-.92c0-.38,0-.91,0-1.54h0c0-.45,0-.92.09-1.45h0a.53.53,0,0,0,0-.13C116.86,441.92,116.91,440.87,116.91,440.18Z" transform="translate(-73.27 -427.04)"/><path class="cls-1" d="M188.05,427.26a4.13,4.13,0,0,0-1.22.28,4.94,4.94,0,0,1-1.22.24H171.87c-.74,0-2.06.06-3.92.15h-.1l-.42,0a31.55,31.55,0,0,1-3.58,0l-13-.51a2.2,2.2,0,0,0-1.63.94,3.21,3.21,0,0,0-1,2c-.13,3.35-.2,8.21-.2,14.5h0V446h0c0,2.06,0,3.65.09,4.81v11.72q0,4.37-.2,12.91v.43a.74.74,0,0,1,0,.12h0c-.12,5.39-.18,9.45-.19,12.21h0v.11a1.41,1.41,0,0,0,.07.41,1.17,1.17,0,0,0,.05.11,1.59,1.59,0,0,0,.15.29.25.25,0,0,1,0,.07h0a3.65,3.65,0,0,0,.27.3,1.9,1.9,0,0,0,1.1.46,1.42,1.42,0,0,0,.65-.29,1.59,1.59,0,0,1,.62-.29c.26,0,.86.05,1.74.13s1.46.16,1.65.16l9.25.22h0l.81,0v0h.22l3.76.08h0l1.58,0H170l2.86.07h0l12.63.3h0l.27,0,.16,0,.38-.05.16,0h0a3.34,3.34,0,0,0,1.17-.5,2.94,2.94,0,0,0,1.33-2.33c0-.52.06-1.1.08-1.72l0-.37v.07c0-1.13.08-2.43.12-3.87v0c0-.31,0-.62,0-.94.06-2.34.1-5.07.13-8.17q0-1.49,0-3.09v0c0-2.46,0-5.12,0-8v-1.85a6,6,0,0,0-.82-2.69c-.55-1-1.08-1.5-1.63-1.5l-.92.17-1,.16v0l-1.46.26a52.86,52.86,0,0,1-7.49,1l-.39.07a7,7,0,0,0-2.41.18,3.08,3.08,0,0,0-.46,1.19,5.74,5.74,0,0,0-.3,1.48c0,.09.38,1.6,1.09,4.58a28.38,28.38,0,0,1,1.06,6.6l-.84.15-.15,0h0c-1.8.31-3.44.56-4.9.75h0a6.23,6.23,0,0,1-.74.09h0c-.68.08-1.32.14-1.92.19l-.56,0h0c-.81.05-1.55.08-2.21.08s-1.37,0-2-.06c0-1.5.42-5.8,1.21-12.94q1.17-10.37,1.64-12.37c.07-.36.31-.54.75-.54a3.45,3.45,0,0,1,.51.06,2,2,0,0,0,.51.1l17.52,1h0l3.71.23a1.73,1.73,0,0,0,1.37-.6,1.61,1.61,0,0,0,.24-.67.41.41,0,0,0,0-.1c0-.13.05-.26.07-.44v0c.19-1.3.37-3.61.52-6.92.2-4,.31-7.07.31-9.26a3.12,3.12,0,0,0-.55-1.67C188.82,427.56,188.44,427.26,188.05,427.26Z" transform="translate(-73.27 -427.04)"/><path class="cls-1" d="M286.79,427.94a53.34,53.34,0,0,0-5.36.44,36.71,36.71,0,0,1-5.45.38l-3.1-.13h0l-1.55-.06h0l-1.55-.06h0L251,427.72h-.41a2.58,2.58,0,0,0-.36.05l-.13,0c-.15,0-.3.1-.47.16l-.13.06c-.14.07-.29.14-.44.23l-.13.07a5.63,5.63,0,0,0-.54.36l-.07,0h0c-.29.22-.59.46-.91.74-.15,3.09-.22,6.33-.22,9.78,0,1.78,0,4.5.1,8.1s.06,6.33.06,8.17c0,3.44-.05,8.64-.18,15.57s-.18,12.15-.18,15.65c0,2.57.82,3.87,2.43,3.87a3.37,3.37,0,0,0,1-.24,2.75,2.75,0,0,1,1-.28,1.35,1.35,0,0,1,.63.28,1.66,1.66,0,0,0,.69.24c.75,0,1.88-.09,3.45-.24a30.93,30.93,0,0,1,3.44-.28,25.63,25.63,0,0,0,1.37-7.38c.13-2.6.27-5.17.4-7.77h2.35c1.16,0,2-.09,2.31-.09a11.89,11.89,0,0,1,3.05.31,62.37,62.37,0,0,0,.55,7.4c.36,2.38.69,4.8,1,7.25,4.75-.21,7.51-.27,8.32-.23h5.17c1.22,0,1.82-.9,1.82-2.71,0-.29-.34-2.28-1-5.95-.12-.59-.22-1.14-.33-1.65v-.07c0-.13-.06-.25-.09-.36l-.12-.63h0c-.26-1.38-.46-2.42-.59-3.14-.09-.48-.14-.84-.16-1s.11-.13.17-.2a2.09,2.09,0,0,1,.22-.2.91.91,0,0,1,.16-.11l.18-.1a2,2,0,0,1,.74-.15l1,.09a1.41,1.41,0,0,0,1.52-1.06,8.39,8.39,0,0,0,.43-2.46,10.24,10.24,0,0,1,.37-2.46c-.16-1.74-.24-5.14-.24-10.23q0-4.56.24-13.62t.27-13.64C288.83,428.58,288.14,427.94,286.79,427.94ZM272.14,454.3v2.62h-3.46a15.16,15.16,0,0,1-6-.93,6.75,6.75,0,0,1-.66-.34v-.21h0a40.16,40.16,0,0,1,.68-8.9h9.45Z" transform="translate(-73.27 -427.04)"/><path class="cls-1" d="M413.42,427.94a53.48,53.48,0,0,0-5.37.44,36.31,36.31,0,0,1-5.43.38l-19.09-.8h-.08l-5.84-.24h-.5a6.09,6.09,0,0,0-3.08,1.72c-.13,3.09-.19,6.33-.19,9.78,0,.6,0,1.31,0,2.11v0c0,.32,0,.69,0,1,0,1.39,0,3,0,4.92.05,3.6.09,6.33.09,8.17,0,3.44-.07,8.64-.17,15.57,0,1.69-.06,3.27-.09,4.75h0V476h0c-.05,3.19-.07,5.88-.09,8.11h0v2.57c0,2.57.79,3.87,2.43,3.87a3.71,3.71,0,0,0,1-.24,2.71,2.71,0,0,1,1-.28,1.29,1.29,0,0,1,.62.28,1.81,1.81,0,0,0,.69.24l.64,0h0l.78,0c.57,0,1.25-.1,2-.18a32,32,0,0,1,3.45-.28,25.29,25.29,0,0,0,1.37-7.38c.13-2.6.27-5.17.43-7.77h2.31c1.19,0,2-.09,2.34-.09a11.6,11.6,0,0,1,3,.31,57.19,57.19,0,0,0,.58,7.4c.33,2.38.66,4.8,1,7.25,4.72-.21,7.51-.27,8.31-.23h5.17c1.22,0,1.83-.9,1.83-2.71,0-.28-.32-2.17-1-5.63h0c0-.12-.05-.22-.06-.33l-.1-.48v0c-.11-.62-.22-1.19-.32-1.72h0c-.1-.53-.21-1-.28-1.45h0c-.14-.72-.25-1.33-.34-1.83h0a2.47,2.47,0,0,0-.06-.29h0c-.1-.55-.16-.94-.19-1.14a1.68,1.68,0,0,1,.61-.55,1.12,1.12,0,0,1,.22-.1l.14-.05.28,0,.22,0,1,.09a1.42,1.42,0,0,0,1.53-1.06,8.57,8.57,0,0,0,.41-2.46,9.5,9.5,0,0,1,.39-2.46c-.17-1.74-.26-5.14-.26-10.23q0-4.56.26-13.62t.24-13.64C415.44,428.58,414.79,427.94,413.42,427.94ZM398.77,454.3v2.62h-3.46c-3.08,0-5.3-.43-6.67-1.27a40.18,40.18,0,0,1,.71-9.11h9.42Z" transform="translate(-73.27 -427.04)"/><path class="cls-1" d="M489.55,479.39l-.18-5.21v-.36l0-.74-.45-12.87h0l-.06-1.66v.11l-.06-1.48,0,0-.07-2h0l-.22-6.2a8.7,8.7,0,0,0-.09-1.14c0-.54-.06-.94-.06-1.23v-.36h0v-1.72h0c0-5.9-.13-10.91-.31-15a.43.43,0,0,1,0-.07v0a1.88,1.88,0,0,0-.12-.18l-.09-.13-.24-.26a1.89,1.89,0,0,0-.2-.2l-.1-.1h0a7.1,7.1,0,0,0-.88-.71,4.57,4.57,0,0,0-2-1,5.56,5.56,0,0,0-1.9.5,6.38,6.38,0,0,1-1.9.46,30.18,30.18,0,0,1-3.16-.24,26.26,26.26,0,0,0-3.15-.27c-2.15,0-3.23,1.36-3.23,4.11a10.5,10.5,0,0,0,.11,1.19c.06.56.12.94.12,1.21q-.54,33.11-.52,45.68c0,.94-.07,2.35-.2,4.23s-.17,3.24-.17,4.14a5.82,5.82,0,0,0,.42,2.1l5.74-.18h0l.78,0h0l7-.22h0l.55,0,1.49,0h0l.84,0h.4a2.71,2.71,0,0,0,1.69-.74,2.3,2.3,0,0,0,.88-1.79,40.16,40.16,0,0,0-.31-4C489.7,481.35,489.59,480.13,489.55,479.39Z" transform="translate(-73.27 -427.04)"/><path class="cls-1" d="M537.09,480.78c-.08-2-.13-3.5-.13-4.46V469a2,2,0,0,0-1-1.73,2.08,2.08,0,0,0-1.52-.42,60.86,60.86,0,0,0-7,1.76c-8,2.07-13.34,3.48-16.13,4.28l-.29-.39.17-7.73v-.41h0l.2-9.36h0l0-1.95,0-.87h0v0h0l.47-22a4,4,0,0,0-.34-1.53q-.31-.87-.78-.87l-.14.14v.09l-.15.06a2.54,2.54,0,0,1-1-.46c-.48-.35-.81-.47-1-.43a2.13,2.13,0,0,0-.51.08h0l-.24.07-.06,0-.24.08c-.26.1-.54.21-.86.36l-.22.09h0l0,0a8.3,8.3,0,0,1-1,.37h0a1.81,1.81,0,0,1-.42.1l-.31,0-8.57.22A2.64,2.64,0,0,0,495,429c-.51.34-.77.68-.8,1s0,2.39.1,6.58l.35,16.2c0,1.49.05,3,.07,4.48v0c0,.14,0,.28,0,.42,0,.6,0,1.2,0,1.8,0,2.89.07,5.05.21,6.51,0-.46,0-.85,0-1.18,0,.54,0,1.38.08,2.52,0,4.09.06,7.75.09,11h0v.08c0,4.53.07,8.24.11,11.1a2.46,2.46,0,0,0,1.72.74,8.51,8.51,0,0,0,1.65-.6l30.78-.68h.31l5.59-.12c1.24-.05,1.87-1.23,1.87-3.52C537.22,484.31,537.19,482.79,537.09,480.78Z" transform="translate(-73.27 -427.04)"/><path class="cls-1" d="M141.66,488.11l.06-.12a2.6,2.6,0,0,0,.13-.36s0,0,0-.06a1.91,1.91,0,0,0,.06-.48q0-1.05-.15-2.67c0-.13,0-.27,0-.41s0-.21,0-.32h0c0-.21,0-.39-.06-.61-.2-1.73-.34-2.95-.35-3.69l-.07-1.94h0l-.46-12.75h0v-.25l-.05-1.39,0,0,0-.07-.5-13.9c0-.25,0-.62-.06-1.14s-.07-.94-.07-1.23v-1.25h0v-1.19h0q0-8.62-.31-14.59a5.16,5.16,0,0,0-1.68-1.66,4.57,4.57,0,0,0-2-1,5.46,5.46,0,0,0-1.9.5,6.34,6.34,0,0,1-1.92.46,29.92,29.92,0,0,1-3.13-.24,27,27,0,0,0-3.14-.27c-2.17,0-3.25,1.36-3.25,4.11a10.5,10.5,0,0,0,.11,1.19A9.83,9.83,0,0,1,123,434q-.49,33.11-.51,45.68c0,.94-.06,2.35-.17,4.23s-.19,3.24-.19,4.14a5.81,5.81,0,0,0,.41,2.1h.07l9.36-.3v0l.87-.05.91,0h.12l.68,0h0l1.64,0h0l2.39-.08h0l.77,0a2.29,2.29,0,0,0,.71-.14h0l0,0,.31-.14.19-.11a3.22,3.22,0,0,0,.45-.33,2.79,2.79,0,0,0,.34-.35h0s0,0,0,0l.09-.12A2.2,2.2,0,0,0,141.66,488.11Z" transform="translate(-73.27 -427.04)"/><path class="cls-1" d="M239.88,474.51c0-.35,0-.63,0-.87h0a3.15,3.15,0,0,0-.1-.82,1.72,1.72,0,0,0-.68-.78h0l-.16-.12a2.49,2.49,0,0,0-1-.53,16.73,16.73,0,0,1-2.58.46h0l-.15,0-2.48.38a77.19,77.19,0,0,1-8.89.81l-9.75.2c-.12-1.55-.25-6.79-.4-7.59a2.11,2.11,0,0,1,1.1-.34h0a1.83,1.83,0,0,1,.33,0l.59,0h0c1.69.07,6.72.29,14.25.7.22,0,.44-.25.69-.79a4.09,4.09,0,0,0,.48-1.35c.53-3.7.6-3.57.71-5.2a4.36,4.36,0,0,0-.75-2.73,2.19,2.19,0,0,0-1.79-1.17,27.66,27.66,0,0,0-3.18.27,26.57,26.57,0,0,1-3.16.24h-8.31l-1.83-2.48v-3.49h0v-1.89h0v-.13l.31-.56,20.13.57,1,0h0l2.68.08c1.92,0,2.89-1.44,2.89-4.46V429.66a1.64,1.64,0,0,0-.29-.32l-.1-.09-.24-.19a1.66,1.66,0,0,0-.21-.16h0l-.47-.31a2.43,2.43,0,0,0-1.5-.51l-13.47.44h-24.5c-.66,0-1,.39-1,1.2v7.7c0,.69,0,1.72-.08,3.09s-.12,2.41-.12.63l0,7.25v.38h0l-.29,37c0,3,.2,3.44.61,3.84a1.54,1.54,0,0,0,1,.58h.14l.39,0,1.51-.11h.07l.52,0,.33,0h0l9.81-.71c1.34,0,3.38.15,6.1.45a59.53,59.53,0,0,0,6.11.46h14.3a4.32,4.32,0,0,0,1.63-3.06c0-4.15,0-7.39-.05-9.74C239.93,476.18,239.91,475.23,239.88,474.51Z" transform="translate(-73.27 -427.04)"/><path class="cls-1" d="M368.65,440.18c0-.49,0-1.12,0-1.84h0c0-.22,0-.47,0-.72h0c0-.61-.06-1.28-.09-2v0c0-.16,0-.29,0-.45-.08-1.53-.12-2.79-.14-3.81h0s0-.05,0-.07c0-.43,0-.83,0-1.17a2.69,2.69,0,0,0-.51-1.59,1.41,1.41,0,0,0-1.12-.73c-1.08,0-2.78.11-5.1.27s-4.08.26-5.29.26l-28.71-.53c-1.35,0-2,2.08-2,6.21v13.88a3,3,0,0,0,2,3l12.89-2.54c.05.28.09.5.12.71v0a1.89,1.89,0,0,0,.05.23l-.29,2.59v0l-.23,2.14v-.06L340,455,338,473.8q-.6,5.59-.9,7.31c-.68,3.79-1,5.63-1,5.53,0,2.39.6,3.58,1.75,3.58l4.54.07h0l1.13,0h0l9,.13h.24a.54.54,0,0,0,.34-.06h0a1.5,1.5,0,0,0,.35-.26,1.72,1.72,0,0,0,.53-.78c0-.55.05-1.07.07-1.57h0c0-.35,0-.7,0-1,0-1.07,0-2,0-2.78s.09-2.84.2-6.58c.09-2.63.16-4.81.16-6.49q0-19.56.79-24.57c3.23.33,5.61.63,7.2.8,2.3.36,3.51.54,3.6.54a1.91,1.91,0,0,1,.56.12,4,4,0,0,0,.61.11c.19,0,.43-.18.75-.52a1.39,1.39,0,0,0,.52-.92c0-.66,0-1.72.13-3.13,0-.11,0-.2,0-.31h0c0-.9.08-1.65.1-2.23h0C368.64,440.55,368.65,440.35,368.65,440.18Z" transform="translate(-73.27 -427.04)"/><path class="cls-1" d="M465.1,431.23a2.3,2.3,0,0,0-1.23-2.08,3.38,3.38,0,0,0-1.75-.6H424.07a6.61,6.61,0,0,0-1.87.14,1.36,1.36,0,0,0-.42.51l0,0-.06.2c0,.06,0,.14-.06.21a2.64,2.64,0,0,0-.07.3c0,.15-.05.31-.06.48s0,0,0,.06h0a4.63,4.63,0,0,0,0,.54v41.29c-.05,3.38-.11,6.5-.23,9.29s-.18,4.07-.18,3.78c0,3.18.47,4.79,1.42,4.79a1,1,0,0,0,1-.53h10a1.48,1.48,0,0,0,1.06-.74,2.69,2.69,0,0,0,.56-1c.06-4.72.11-8.28.11-10.67a9.4,9.4,0,0,1,2-.6,47.51,47.51,0,0,0,5.12-.91c.77-.13,1.46-.23,2.08-.31l.6-.07h.12l.57-.07a15.21,15.21,0,0,1,1.56-.06l.15.47v1q0,.6-1.43,11.21c0,1.7.7,2.53,2.13,2.53a2.62,2.62,0,0,0,.75-.21,2.49,2.49,0,0,1,.72-.24h10.61a10.51,10.51,0,0,0,2.69-.45c1.3-.34,2.07-.71,2.28-1.1V479.9h0v-2.7h0V477h0v-5.86s0,0,0-.05v-4.9h0v-7.59h0V448.1h0v-2.31h0v-.84h0V442.8h0Zm-16,27.55c-.65,0-1.5,0-2.59.06h-2.56c-.66,0-1.55,0-2.69-.16l-.56-.06h0l-.69-.07a36.18,36.18,0,0,0-3.8-.29c.07-3,0-5.24-.07-6.74l.07-.89A111.1,111.1,0,0,1,449,449.52a1.84,1.84,0,0,1,.82.15Q449.79,452.49,449.08,458.78Z" transform="translate(-73.27 -427.04)"/><path class="cls-1" d="M467.18,521.14a5.18,5.18,0,0,0-1.93-1.76l-1.64-.85-2.73.23-2.67-.17a21.78,21.78,0,0,0-2.49,1.59,10.36,10.36,0,0,0-1.65,2.55,6.74,6.74,0,0,0-.73,2.1l-.12,2.27a12,12,0,0,0,.34,3.18,8.79,8.79,0,0,0,1.14,2.66c.71,1.18,1.25,1.76,1.59,1.76a8.09,8.09,0,0,0,2.27.85l2.32.23q3.18-.16,3.18-.45c1.44-.49,2.15-.82,2.15-1a15.36,15.36,0,0,0,1.48-2.55,30.81,30.81,0,0,0,1.25-4.77,10.9,10.9,0,0,0-.68-3.8A4.37,4.37,0,0,0,467.18,521.14Z" transform="translate(-73.27 -427.04)"/><path class="cls-1" d="M414.59,523.3l-.57-1.65H414a24.42,24.42,0,0,0-1.59,4.37,15.9,15.9,0,0,0-1.13,3.07l-.29,2.09H411l2.72.06,3.41-.17a18.21,18.21,0,0,1-1.19-4A17.37,17.37,0,0,0,414.59,523.3Z" transform="translate(-73.27 -427.04)"/><path class="cls-1" d="M230.36,523.3l-.57-1.65h-.06a24.42,24.42,0,0,0-1.59,4.37,16.73,16.73,0,0,0-1.13,3.07l-.28,2.09h.05l2.73.06,3.4-.17a18.78,18.78,0,0,1-1.19-4A16.79,16.79,0,0,0,230.36,523.3Z" transform="translate(-73.27 -427.04)"/><polygon class="cls-1" points="202.76 91.21 198.96 91.09 198.79 91.09 198.73 91.09 198.73 91.15 198.5 94.1 198.9 97.22 201.4 97.39 204.52 96.43 206.11 93.99 204.91 91.21 202.76 91.21"/><path class="cls-1" d="M533.09,499.13H77.53a4.25,4.25,0,0,0-4.26,4.25v48a4.26,4.26,0,0,0,4.26,4.26H533.09a4.25,4.25,0,0,0,4.25-4.26v-48A4.25,4.25,0,0,0,533.09,499.13ZM146.5,508.38a18.42,18.42,0,0,1-.91,5.44,7.21,7.21,0,0,0-1,2.61,9,9,0,0,1-.46,3,8.76,8.76,0,0,0-.85,2.9,38,38,0,0,1-1.19,4.42,21.07,21.07,0,0,1-1.48,4.83l-1.41,5.39a8.75,8.75,0,0,0-1.19,3.68,14.8,14.8,0,0,1-1.37,4c-.49,1.25-.79,1.87-.9,1.87a18.65,18.65,0,0,1-3.69.57h-1.76q-3.35,0-7.77-.45a53.23,53.23,0,0,0-1.71-8.17l-2.72-8.91c-.38-1.4-.76-2.95-1.13-4.65h-.06c-.76,2.87-1.4,5.73-1.93,8.56q-1.59,5.06-1.65,5.51a8.68,8.68,0,0,1-.73,3.12,14.44,14.44,0,0,0-1.37,4.37c0,.15-.87.39-2.61.73a46.42,46.42,0,0,0-5.16.29c-2.42-.11-3.63-.27-3.63-.46-1.13-.26-1.7-.47-1.7-.62a23.16,23.16,0,0,1-1.76-5.22,44.35,44.35,0,0,1-1.25-4.88,10.14,10.14,0,0,1-1.25-3.57,61.14,61.14,0,0,0-1.64-6,27.39,27.39,0,0,1-.68-3.4,17,17,0,0,1-1.19-4.15c-.54-2.57-.88-3.86-1-3.86a8.41,8.41,0,0,1-1.13-3.23,18.31,18.31,0,0,1-.46-3.8l2.62-.79,2.78.22v.06L96,507.3a31.54,31.54,0,0,1,5.62.79l.51,5.73a10.8,10.8,0,0,1,.85,2.73,21.91,21.91,0,0,0,1.42,7.37,40.76,40.76,0,0,1,1.25,5.62v.06h.22a29,29,0,0,1,.86-5.56,14.24,14.24,0,0,0,.79-3.52,30,30,0,0,1,1.25-6.19,29.62,29.62,0,0,0,.79-3.68l1-2.61a26.91,26.91,0,0,0,5.22-.74,50.57,50.57,0,0,0,7,.74c.8,0,1.19.13,1.19.28a30.73,30.73,0,0,0,1.54,5.5,23.76,23.76,0,0,0,1.36,5.28c.37,1.4.85,4.1,1.42,8.11l.62,2.67a43.19,43.19,0,0,0,1.42-6.52,37,37,0,0,1,1.19-4.54c.42-3.44.7-5.47.85-6.07a10.33,10.33,0,0,0,.63-2.16v-.23l.05-2.27a29.45,29.45,0,0,1,3-.51h2c.75,0,1.81-.05,3.17-.17l5.22.91h.06Zm35.91,38.35-2.55.57-8.17-.17-3.52.11h-1.3l-3.58.23q-6.34-.22-6.35-.46a8.71,8.71,0,0,1-2.1-.56q-.28-3.63-.28-6.41V540q0-3.24.39-7.15l-.28-2.72.06-2.73-.17-2.83q.45-6.36.45-7.83l-.23-3.24a26.05,26.05,0,0,1,.51-5.61l2.27-.4,2.44.06h.46c1.66,0,3.42-.08,5.27-.23l2.61.23,2.73-.23,5.33.45,2.72-.34,2.56.63.56,2.55-.73,7.77c0,.19,0,.29-.12.29l-2.55.11a42.22,42.22,0,0,0-5.73-.45,38,38,0,0,0-5.73.51l.11,3.29.17-.06h2.5l5.22.11,3.46-.11h1.87l.06.06v0a57.05,57.05,0,0,0,.51,6.59l.11,1a8.12,8.12,0,0,1-.74,2.55l-.39.06h-1.14c-1.62,0-2.85,0-3.68-.12l-2.73.29a42.22,42.22,0,0,1-5.62-.4v3.63h.06a30.44,30.44,0,0,1,5.28.4l2.55-.12,2.55.23,5.05-.51a26.84,26.84,0,0,1,.17,3.23v1.76c0,.34.14,1.44.4,3.29A15.85,15.85,0,0,1,182.41,546.73Zm64.23.68-.11.06-8.74-.51a25.49,25.49,0,0,1-.85-3.24l-1.08-2.61-2.5.46-2.49-.17-5,.28-2.43-.57a59.53,59.53,0,0,1-1.71,5.85l0,0q-3.47.29-8.12.29h-3.23l-2.78-.63v0q1.3-3.3,3.29-9a44,44,0,0,0,2.32-6.58,53.47,53.47,0,0,0,2.56-6.13q.61-1.36,1.64-4.48l2.56-5,1.76-5.16,1.41-2.33a47.39,47.39,0,0,1,5.45-.45l2.78.17,2.89-.34c1.86.38,2.79.64,2.79.79l2.38,5.05a15.43,15.43,0,0,0,1.36,3.92q.51,1.08,1.53,4.08a39.06,39.06,0,0,1,2.78,5.85l2.67,7a21.93,21.93,0,0,0,1.59,4.54,17.88,17.88,0,0,1,1,3.29,9.07,9.07,0,0,1,1.42,3.8L252,547A24.07,24.07,0,0,1,246.64,547.41Zm44.88-.11-1.42.17c-1.36-.11-3.91-.25-7.66-.4l-2.67-.4a41.05,41.05,0,0,0-3.68-6.86,55.87,55.87,0,0,1-3.52-7h-.06l-.34,2.84.12,2.78-.17,2.78.28,2.78-.11,2.66a41.23,41.23,0,0,1-5.11.51,50.23,50.23,0,0,1-7-.51l-.62-.17a29.75,29.75,0,0,1-.34-4c0-.94-.08-2.3-.23-4.08l.28-10.9.06-.17-.23-2.83.29-2.73c-.19-1.81-.29-3-.29-3.4v-4.54a29.58,29.58,0,0,1,.57-5.84,49.41,49.41,0,0,0,5.5-.74,46.73,46.73,0,0,0,5.56.45l2.9-.4,2.78.8h.85a53.12,53.12,0,0,1,7,.34c1.52.6,2.35.95,2.5,1a14.63,14.63,0,0,1,3,3.12,12.66,12.66,0,0,1,1.7,2.89l.4,2.5-.12,2.5h-.05v.06l.28,2.66c-.45,2-.76,3-.91,3q-1.81,1.81-3.46,3.75l-2.55.85a49.6,49.6,0,0,1,4.37,7.09c1.36,1.4,2.08,2.33,2.15,2.78l3.41,6A12.42,12.42,0,0,1,291.52,547.3Zm38.58-.57-2.55.57-8.17-.17-3.52.11h-1.31l-3.57.23c-4.24-.15-6.35-.3-6.35-.46a8.71,8.71,0,0,1-2.1-.56q-.28-3.63-.29-6.41V540c0-2.16.14-4.54.4-7.15l-.28-2.72.05-2.73-.17-2.83q.47-6.36.46-7.83l-.23-3.24a26.05,26.05,0,0,1,.51-5.61l2.27-.4,2.44.06h.45c1.67,0,3.43-.08,5.28-.23l2.61.23,2.72-.23,5.34.45,2.72-.34,2.55.63.57,2.55-.74,7.77c0,.19,0,.29-.11.29l-2.55.11a42.23,42.23,0,0,0-5.74-.45,38,38,0,0,0-5.72.51l.11,3.29.17-.06h2.5l5.22.11,3.46-.11h1.87l.06.06v0a57.05,57.05,0,0,0,.51,6.59l.11,1a8.12,8.12,0,0,1-.74,2.55l-.39.06h-1.14q-2.44,0-3.69-.12l-2.72.29a42.1,42.1,0,0,1-5.62-.4v3.63h.06a30.52,30.52,0,0,1,5.28.4l2.55-.12,2.55.23,5-.51a26.84,26.84,0,0,1,.17,3.23v1.76c0,.34.14,1.44.4,3.29A15.85,15.85,0,0,1,330.1,546.73ZM386.22,544a14.7,14.7,0,0,1-.74,2.72l-.34.06a39.2,39.2,0,0,0-4.77.39l-5.11.29-2.6-.34c-2,.19-3.75.28-5.23.28a52,52,0,0,1-5.73-.62l-2-.12-.05-.17.05-2.49-.51-2.84.46-2.67q0-6.81-.23-11.17l.11-4.6v-.23q0-2.14-.17-6.35a34.88,34.88,0,0,1,.4-5.39l-.11-2.61a15.47,15.47,0,0,1,3.06-.4l2.21-.4,2.67.18,2.72-.23a8.84,8.84,0,0,1,2.61.79v2.27l-.17,4.09v1.7l0,.06,0,0v.12a43.18,43.18,0,0,0,.34,5.44l-.17,2.73.06,2.44.06.28a53.91,53.91,0,0,0-.46,5.56l.28,2.72,2.56.17,2.61-.11,2.55.4,5.22-.68.46,3-.18,2.9Zm44.65,3.4-.12.06L422,547a24.5,24.5,0,0,1-.86-3.24l-1.07-2.61-2.5.46-2.5-.17-5,.28-2.44-.57A59.68,59.68,0,0,1,406,547l-.06,0c-2.3.19-5,.29-8.11.29h-3.24l-2.77-.63v0q1.31-3.3,3.29-9a45.15,45.15,0,0,0,2.32-6.58,53.47,53.47,0,0,0,2.56-6.13q.62-1.36,1.64-4.48l2.55-5,1.76-5.16,1.42-2.33a47.23,47.23,0,0,1,5.45-.45l2.78.17,2.89-.34c1.85.38,2.78.64,2.78.79l2.39,5.05a15,15,0,0,0,1.36,3.92q.51,1.08,1.53,4.08a40.07,40.07,0,0,1,2.78,5.85l2.67,7a22.53,22.53,0,0,0,1.58,4.54,18.39,18.39,0,0,1,1,3.29,9.22,9.22,0,0,1,1.42,3.8l.28,1.31A24.2,24.2,0,0,1,430.87,547.41ZM482.05,536a17.42,17.42,0,0,1-2,3.69,10.18,10.18,0,0,1-2.27,2.55L474.73,545a45.18,45.18,0,0,0-5.22,2.44,17.09,17.09,0,0,1-3.52.68h-4.65a25.37,25.37,0,0,0-3.35.51c-2-.37-5-1.07-8.74-2.1L444.32,543a14,14,0,0,1-2-2.44q-2.55-4.89-2.55-5l-.86-5.56.17-2.9-.11-3.12.06-2.61a32.81,32.81,0,0,0,1.36-3.74,4.79,4.79,0,0,1,.85-2.44,7.45,7.45,0,0,1,1.82-2.33A18,18,0,0,0,446.3,510a2.85,2.85,0,0,1,1.53-1.13,15.1,15.1,0,0,1,3.52-1.42l3.91-1.08h2l4.14-.17h2c2.24.42,3.77.68,4.6.8a10.31,10.31,0,0,1,3.52.79,5.77,5.77,0,0,1,2.32,1.42,24.77,24.77,0,0,1,3.47,2.55,20,20,0,0,1,2.89,3.63,34.34,34.34,0,0,1,1.76,3.92,9.26,9.26,0,0,1,.91,2.16v2.27l.39,6.35A50,50,0,0,1,482.05,536Zm40.79-23.78-4.54,5.17a21.51,21.51,0,0,1-3.29,3l-.34.28q-4-3.18-4.71-3.18l-2.33-.22a14.88,14.88,0,0,0-2.1.45l-1.24,1.48c2.6,1.77,3.95,2.66,4,2.66a49.34,49.34,0,0,1,5.85,1.48,10.69,10.69,0,0,1,2.78,1.53,23.13,23.13,0,0,1,3.8,3.92l1,2.55v2.61q-.57,6.35-1,6.35a26.27,26.27,0,0,1-2.39,4.37q-4.93,3.12-6.07,3.24a13.43,13.43,0,0,1-3.63.68l-.62.05-3.64-.17H500.6c-2.5-.22-3.75-.45-3.75-.68l-4.59-1.93a12.69,12.69,0,0,1-2.73-2.27c-.64-.64-1-1-1-1.13a24.23,24.23,0,0,1,2-2.61,24.32,24.32,0,0,0,2.44-2,10.74,10.74,0,0,1,2-2.72,9.59,9.59,0,0,1,1.7-1.42,22.3,22.3,0,0,0,4.77,3.18c.23.3,1,.45,2.32.45l1.54.06,3-1.82a10.42,10.42,0,0,0-2-2q-2.55-1-5.11-2.16a10.81,10.81,0,0,1-3.12-.79c-1-.68-2.46-1.63-4.42-2.84a13.58,13.58,0,0,1-2-3.18,12.88,12.88,0,0,1-.68-1.75,50.32,50.32,0,0,0,.34-5.45,23.64,23.64,0,0,1,1.48-4.88c0-.23.7-1,2.1-2.39,1.59-1.43,2.59-2.15,3-2.15a21.11,21.11,0,0,1,4.32-1.65l2.78-.17,2.72.34,2.84-.17c1.74.31,3.65.57,5.73.8a19.76,19.76,0,0,1,3,1.53,20.58,20.58,0,0,1,2.67,2.38l1,1.14Z" transform="translate(-73.27 -427.04)"/></svg>